<?xml version="1.0" standalone="no"?>
<!DOCTYPE svg PUBLIC "-//W3C//DTD SVG 20010904//EN"
 "http://www.w3.org/TR/2001/REC-SVG-20010904/DTD/svg10.dtd">
<svg version="1.0" xmlns="http://www.w3.org/2000/svg"
 width="627.000000pt" height="186.000000pt" viewBox="0 0 627.000000 186.000000"
 preserveAspectRatio="xMidYMid meet">

<g transform="translate(0.000000,186.000000) scale(0.100000,-0.100000)"
fill="#000000" stroke="none">
<path d="M5396 1657 c-29 -29 -31 -44 -14 -81 10 -24 57 -46 97 -46 24 0 75
-38 94 -69 14 -24 18 -59 21 -193 3 -183 14 -229 70 -294 l33 -39 -33 -39
c-55 -64 -67 -111 -70 -294 -3 -134 -7 -169 -21 -193 -23 -38 -66 -65 -121
-74 -47 -8 -69 -24 -78 -61 -8 -31 18 -72 50 -80 71 -17 202 44 257 119 47 65
59 123 59 291 0 133 2 155 20 184 25 40 75 72 116 72 17 0 43 9 58 21 56 44
18 129 -58 129 -38 0 -89 30 -113 67 -15 22 -19 56 -23 202 -5 168 -6 179 -33
233 -45 92 -128 149 -235 164 -46 6 -53 4 -76 -19z"/>
<path d="M778 1646 c-97 -26 -174 -102 -203 -199 -10 -35 -15 -97 -15 -201 0
-133 -2 -155 -20 -184 -25 -40 -75 -72 -116 -72 -17 0 -43 -9 -58 -21 -56 -44
-18 -129 58 -129 41 0 91 -32 116 -72 18 -29 20 -51 20 -184 0 -104 5 -166 15
-201 31 -103 116 -181 222 -203 66 -14 98 -8 119 25 32 49 0 99 -68 110 -55 9
-98 36 -121 74 -14 24 -18 59 -21 193 -3 183 -14 229 -70 294 l-33 39 33 39
c55 64 67 111 70 294 3 134 7 169 21 193 19 31 70 69 94 69 40 0 87 22 97 46
17 37 15 52 -13 79 -27 28 -55 30 -127 11z"/>
</g>
</svg>
