<?xml version="1.0" standalone="no"?>
<!DOCTYPE svg PUBLIC "-//W3C//DTD SVG 20010904//EN"
 "http://www.w3.org/TR/2001/REC-SVG-20010904/DTD/svg10.dtd">
<svg version="1.0" xmlns="http://www.w3.org/2000/svg"
 width="157.000000pt" height="47.000000pt" viewBox="0 0 157.000000 47.000000"
 preserveAspectRatio="xMidYMid meet">

<g transform="translate(0.000000,47.000000) scale(0.100000,-0.100000)"
fill="#000000" stroke="none">
<path d="M1350 406 c0 -8 10 -16 23 -18 19 -3 23 -11 28 -58 3 -31 11 -65 17
-76 7 -14 8 -24 1 -31 -5 -5 -13 -36 -17 -69 -6 -48 -11 -61 -30 -69 -22 -10
-25 -26 -6 -32 6 -2 23 6 37 17 22 17 27 30 27 65 0 57 8 75 36 86 26 9 32 29
10 29 -29 0 -46 30 -46 81 0 36 -5 54 -20 69 -23 23 -60 27 -60 6z"/>
<path d="M165 390 c-11 -13 -20 -41 -23 -76 -4 -47 -8 -57 -28 -64 -30 -12
-30 -22 -2 -35 19 -8 24 -21 29 -68 7 -64 29 -97 66 -97 31 0 29 16 -4 32 -25
12 -28 19 -31 68 -2 30 -8 60 -13 67 -7 8 -7 18 0 32 6 11 11 40 11 64 0 44
21 77 48 77 7 0 12 5 12 10 0 18 -46 11 -65 -10z"/>
<path d="M886 301 c-18 -34 -22 -146 -6 -156 6 -4 10 12 10 39 l0 46 51 0 c31
0 48 4 44 10 -3 6 -26 10 -50 10 -42 0 -43 1 -36 28 6 20 13 26 30 24 29 -3
23 22 -7 26 -15 2 -25 -5 -36 -27z"/>
<path d="M1010 310 c0 -5 5 -10 10 -10 6 0 10 5 10 10 0 6 -4 10 -10 10 -5 0
-10 -4 -10 -10z"/>
<path d="M396 288 c-20 -30 -36 -107 -25 -114 5 -3 9 4 9 15 0 30 24 26 37 -6
l11 -28 1 27 c1 19 8 29 29 36 l27 10 -27 1 c-25 1 -28 5 -28 35 0 44 -15 54
-34 24z m10 -55 c-11 -11 -17 4 -9 23 7 18 8 18 11 1 2 -10 1 -21 -2 -24z"/>
<path d="M470 300 c-11 -7 -7 -10 18 -10 l32 0 0 -59 c0 -33 5 -63 10 -66 6
-4 10 18 10 59 l0 66 45 0 c25 0 45 5 45 10 0 13 -140 13 -160 0z"/>
<path d="M630 268 c-21 -47 -29 -124 -8 -80 15 30 38 28 38 -3 0 -14 5 -25 10
-25 6 0 10 11 10 23 0 15 9 28 23 35 22 10 22 11 1 11 -17 1 -23 9 -28 41 -3
22 -11 40 -17 40 -5 0 -19 -19 -29 -42z m17 -30 c-3 -8 -6 -5 -6 6 -1 11 2 17
5 13 3 -3 4 -12 1 -19z"/>
<path d="M1280 271 c-11 -22 -20 -55 -19 -73 0 -31 1 -32 11 -10 15 30 38 28
38 -3 0 -14 5 -25 10 -25 6 0 10 11 10 23 0 15 9 28 23 35 22 11 22 11 1 11
-17 1 -23 9 -28 36 -10 50 -22 51 -46 6z m17 -33 c-3 -8 -6 -5 -6 6 -1 11 2
17 5 13 3 -3 4 -12 1 -19z"/>
<path d="M236 230 c-4 -38 -4 -75 0 -81 10 -17 24 11 24 51 l0 35 26 -38 c14
-21 31 -36 37 -34 7 2 13 31 15 73 3 77 -15 81 -20 4 l-3 -45 -29 53 c-16 28
-32 52 -36 52 -4 0 -11 -31 -14 -70z"/>
<path d="M747 293 c-11 -11 -8 -155 3 -148 6 3 10 25 10 48 1 40 2 41 16 22
53 -72 64 -68 64 23 0 74 -17 76 -22 2 l-3 -45 -28 53 c-29 55 -30 56 -40 45z"/>
<path d="M1066 289 c-4 -9 -6 -36 -4 -60 2 -36 7 -45 24 -47 17 -2 24 5 33 29
14 40 14 79 1 79 -5 0 -10 -15 -10 -32 0 -40 -16 -71 -24 -48 -3 8 -7 33 -9
55 -2 28 -5 35 -11 24z"/>
<path d="M1160 290 c0 -5 9 -10 20 -10 25 0 25 0 -1 -54 -26 -52 -20 -81 13
-71 35 11 48 29 16 21 -16 -3 -28 -4 -28 -1 0 3 11 28 25 55 14 27 25 54 25
60 0 5 -16 10 -35 10 -19 0 -35 -4 -35 -10z"/>
<path d="M1017 273 c-11 -10 -8 -101 3 -108 6 -4 10 17 10 54 0 62 -1 66 -13
54z"/>
</g>
</svg>
